<svg xmlns="http://www.w3.org/2000/svg" viewBox="0 0 24 24" width="24" height="24" preserveAspectRatio="xMidYMid slice" focusable="false" style="width: 100%; height: 100%; transform: translate3d(0px, 0px, 0px);"><defs><clipPath id="animationMask_3cIi5b6DvN"><rect width="24" height="24" x="0" y="0"></rect></clipPath></defs><g clip-path="url(#animationMask_3cIi5b6DvN)"><g transform="matrix(1,0,0,1,1.75,-0.25)" opacity="1" style="display: block;"><g opacity="1" transform="matrix(1,0,0,1,10.25,12.24899959564209)"><path fill="rgb(0,0,0)" fill-opacity="1" d=" M-12,-11.99899959564209 C-12,-11.99899959564209 12,-11.99899959564209 12,-11.99899959564209 C12,-11.99899959564209 12,12.00100040435791 12,12.00100040435791 C12,12.00100040435791 -12,12.00100040435791 -12,12.00100040435791 C-12,12.00100040435791 -12,-11.99899959564209 -12,-11.99899959564209z M-12,12.00100040435791 C-12,12.00100040435791 12,12.00100040435791 12,12.00100040435791 C12,12.00100040435791 12,-11.99899959564209 12,-11.99899959564209 C12,-11.99899959564209 -12,-11.99899959564209 -12,-11.99899959564209 C-12,-11.99899959564209 -12,12.00100040435791 -12,12.00100040435791z M3.941999912261963,-7.677000045776367 C3.621000051498413,-9.562999725341797 1.9789999723434448,-10.99899959564209 0,-10.99899959564209 C-1.9769999980926514,-10.99899959564209 -3.61899995803833,-9.5649995803833 -3.941999912261963,-7.681000232696533 C-2.8299999237060547,-7.519999980926514 -1.690999984741211,-6.928999900817871 -0.6510000228881836,-5.796000003814697 C-0.6510000228881836,-5.796000003814697 -0.46399998664855957,-5.585000038146973 -0.46399998664855957,-5.585000038146973 C-0.25600001215934753,-5.333000183105469 -0.10199999809265137,-5.13700008392334 0,-4.997000217437744 C0.10199999809265137,-5.13700008392334 0.25600001215934753,-5.333000183105469 0.4650000035762787,-5.585000038146973 C0.4650000035762787,-5.585000038146973 0.6520000100135803,-5.795000076293945 0.6520000100135803,-5.795000076293945 C1.6929999589920044,-6.925000190734863 2.8310000896453857,-7.514999866485596 3.941999912261963,-7.677000045776367z M4.949999809265137,-7.709000110626221 C7.672999858856201,-7.482999801635742 10,-4.7729997634887695 10,-1.3329999446868896 C10,4.190000057220459 5,9.5 0,11.99899959564209 C-5.005000114440918,9.496999740600586 -10,4.190000057220459 -10,-1.3329999446868896 C-10,-4.771999835968018 -7.671999931335449,-7.485000133514404 -4.949999809265137,-7.710999965667725 C-4.604000091552734,-10.135000228881836 -2.5199999809265137,-11.99899959564209 0,-11.99899959564209 C2.5209999084472656,-11.99899959564209 4.605000019073486,-10.133999824523926 4.949999809265137,-7.709000110626221z M0,10.87399959564209 C5.085999965667725,8.163000106811523 9,3.171999931335449 9,-1.3329999446868896 C9,-6.410999774932861 3.947000026702881,-8.718000411987305 0.8080000281333923,-4.408999919891357 C0.8080000281333923,-4.408999919891357 -0.0010000000474974513,-3.296999931335449 -0.0010000000474974513,-3.296999931335449 C-0.0010000000474974513,-3.296999931335449 -0.8100000023841858,-4.409999847412109 -0.8100000023841858,-4.409999847412109 C-3.940999984741211,-8.723999977111816 -9,-6.4120001792907715 -9,-1.3329999446868896 C-9,3.1730000972747803 -5.089000225067139,8.16100025177002 0,10.87399959564209z"></path><g opacity="1" transform="matrix(1,0,0,1,0,0)"></g></g></g><g style="display: none;" transform="matrix(1,0,0,1,1.75,-0.25100040435791016)" opacity="1"><g opacity="1" transform="matrix(1,0,0,1,10.333000183105469,13.779000282287598)"><path fill="rgb(129,215,208)" fill-opacity="1" d=" M-12.083000183105469,-13.529000282287598 C-12.083000183105469,-13.529000282287598 11.916999816894531,-13.529000282287598 11.916999816894531,-13.529000282287598 C11.916999816894531,-13.529000282287598 11.916999816894531,10.470999717712402 11.916999816894531,10.470999717712402 C11.916999816894531,10.470999717712402 -12.083000183105469,10.470999717712402 -12.083000183105469,10.470999717712402 C-12.083000183105469,10.470999717712402 -12.083000183105469,-13.529000282287598 -12.083000183105469,-13.529000282287598z M-12.083000183105469,10.470999717712402 C-12.083000183105469,10.470999717712402 11.916999816894531,10.470999717712402 11.916999816894531,10.470999717712402 C11.916999816894531,10.470999717712402 11.916999816894531,-13.529000282287598 11.916999816894531,-13.529000282287598 C11.916999816894531,-13.529000282287598 -12.083000183105469,-13.529000282287598 -12.083000183105469,-13.529000282287598 C-12.083000183105469,-13.529000282287598 -12.083000183105469,10.470999717712402 -12.083000183105469,10.470999717712402z M-8.196999549865723,-7.251999855041504 C-5.650000095367432,-9.425000190734863 -2.999000072479248,-8.736000061035156 -0.24699999392032623,-5.184999942779541 C1.8179999589920044,-8.354999542236328 4.123000144958496,-9.232000350952148 6.672999858856201,-7.818999767303467 C8.5600004196167,-5.630000114440918 9.10200023651123,-3.1040000915527344 8.29800033569336,-0.23800000548362732 C7.493000030517578,2.628000020980835 4.644999980926514,5.848999977111816 -0.24699999392032623,9.425000190734863 C-4.640999794006348,5.705999851226807 -7.291999816894531,2.868000030517578 -8.196999549865723,0.9100000262260437 C-9.10200023651123,-1.0490000247955322 -9.10200023651123,-3.7699999809265137 -8.196999549865723,-7.251999855041504z"></path><g opacity="1" transform="matrix(1,0,0,1,0,0)"></g></g><g opacity="1" transform="matrix(1,0,0,1,10.25,12.25)"><path fill="rgb(0,0,0)" fill-opacity="1" d=" M-12,-11.99899959564209 C-12,-11.99899959564209 12,-11.99899959564209 12,-11.99899959564209 C12,-11.99899959564209 12,12.00100040435791 12,12.00100040435791 C12,12.00100040435791 -12,12.00100040435791 -12,12.00100040435791 C-12,12.00100040435791 -12,-11.99899959564209 -12,-11.99899959564209z M-12,12.00100040435791 C-12,12.00100040435791 12,12.00100040435791 12,12.00100040435791 C12,12.00100040435791 12,-11.99899959564209 12,-11.99899959564209 C12,-11.99899959564209 -12,-11.99899959564209 -12,-11.99899959564209 C-12,-11.99899959564209 -12,12.00100040435791 -12,12.00100040435791z M8,-1.3329999446868896 C8,-5.514999866485596 4.136000156402588,-7.2789998054504395 1.6160000562667847,-3.819999933242798 C1.6160000562667847,-3.819999933242798 -0.003000000026077032,-1.597000002861023 -0.003000000026077032,-1.597000002861023 C-0.003000000026077032,-1.597000002861023 -1.61899995803833,-3.822999954223633 -1.61899995803833,-3.822999954223633 C-4.131999969482422,-7.283999919891357 -8,-5.515999794006348 -8,-1.3329999446868896 C-8,2.614000082015991 -4.561999797821045,7.126999855041504 0,9.730999946594238 C4.558000087738037,7.127999782562256 8,2.61299991607666 8,-1.3329999446868896z M2.9700000286102295,-7.425000190734863 C2.763000011444092,-8.880000114440918 1.5119999647140503,-10 0,-10 C-1.5110000371932983,-10 -2.760999917984009,-8.881999969482422 -2.9690001010894775,-7.428999900817871 C-2.431999921798706,-7.2270002365112305 -1.8980000019073486,-6.918000221252441 -1.378999948501587,-6.489999771118164 C-1.378999948501587,-6.489999771118164 -1.0230000019073486,-6.175000190734863 -1.0230000019073486,-6.175000190734863 C-0.5600000023841858,-5.691999912261963 -0.21899999678134918,-5.300000190734863 0,-4.998000144958496 C0.32899999618530273,-5.449999809265137 0.671999990940094,-5.840000152587891 1.0240000486373901,-6.172999858856201 C1.0240000486373901,-6.172999858856201 1.38100004196167,-6.48799991607666 1.38100004196167,-6.48799991607666 C1.8990000486373901,-6.915999889373779 2.433000087738037,-7.223999977111816 2.9700000286102295,-7.425000190734863z M4.949999809265137,-7.709000110626221 C7.672999858856201,-7.484000205993652 10,-4.77400016784668 10,-1.3329999446868896 C10,4.190000057220459 5,9.49899959564209 0,11.99899959564209 C-5.00600004196167,9.496999740600586 -10,4.190000057220459 -10,-1.3329999446868896 C-10,-4.7729997634887695 -7.671999931335449,-7.485000133514404 -4.949999809265137,-7.711999893188477 C-4.604000091552734,-10.13599967956543 -2.5199999809265137,-12 0,-12 C2.5199999809265137,-12 4.605000019073486,-10.133999824523926 4.949999809265137,-7.709000110626221z"></path><g opacity="1" transform="matrix(1,0,0,1,0,0)"></g></g></g></g></svg>