<svg width="48" height="48" viewBox="0 0 48 48" fill="none" xmlns="http://www.w3.org/2000/svg" style="
    width: 28px;
">
<path d="M24 0C10.7658 0 0 10.7658 0 24C0 28.5148 1.25446 32.8975 3.63415 36.7034C2.68615 40.0246 0.973846 46.3071 0.955385 46.3726C0.866769 46.6975 0.961846 47.0446 1.20462 47.2782C1.44738 47.5117 1.79815 47.5948 2.11754 47.4969L11.6308 44.5708C15.3572 46.8157 19.6246 48 24 48C37.2342 48 48 37.2342 48 24C48 10.7658 37.2342 0 24 0ZM24 46.1538C19.8286 46.1538 15.7652 44.988 12.2483 42.7837C12.0997 42.6905 11.9289 42.6434 11.7582 42.6434C11.6668 42.6434 11.5754 42.6572 11.4868 42.684L3.18 45.2409C3.79015 43.0135 4.88677 39.0295 5.52277 36.8132C5.59662 36.5566 5.55508 36.2797 5.41015 36.0554C3.07846 32.4674 1.84615 28.2988 1.84615 24C1.84615 11.7849 11.7849 1.84615 24 1.84615C36.2151 1.84615 46.1538 11.7849 46.1538 24C46.1538 36.2151 36.2151 46.1538 24 46.1538Z" fill="black"></path>
<path d="M39.6785 29.6548C37.9745 28.7086 36.5234 27.7597 35.4646 27.0674C34.656 26.5394 34.0717 26.1582 33.6434 25.9431C32.4462 25.3459 31.5388 25.7677 31.1935 26.1166C31.1502 26.16 31.1114 26.2071 31.0782 26.2569C29.8348 28.1225 28.2111 29.9068 27.7357 30.0028C27.1865 29.9169 24.6157 28.4557 22.0606 26.328C19.452 24.1542 17.8108 22.0726 17.5698 20.6548C19.2434 18.9323 19.8462 17.8486 19.8462 16.6154C19.8462 15.3443 16.8812 10.0376 16.3449 9.50124C15.8068 8.96401 14.5948 8.88001 12.7422 9.24924C12.564 9.28524 12.3997 9.37293 12.2705 9.50124C12.0462 9.72555 6.79754 15.0766 9.29169 21.5622C12.0295 28.68 19.0569 36.9535 28.0163 38.2975C29.0345 38.4499 29.9889 38.5256 30.8825 38.5256C36.1532 38.5256 39.264 35.8736 40.14 30.6129C40.2055 30.228 40.02 29.844 39.6785 29.6548ZM28.2905 36.4717C18.816 35.0511 12.8483 25.6643 11.0151 20.8994C9.19661 16.1732 12.5502 11.9594 13.392 11.0068C14.0769 10.8905 14.7978 10.8415 15.0988 10.8886C15.7274 11.7628 17.904 15.8751 18 16.6154C18 17.1 17.8422 17.7748 15.9628 19.6551C15.7892 19.8277 15.6923 20.0622 15.6923 20.3077C15.6923 25.1409 25.8868 31.8462 27.6923 31.8462C29.2625 31.8462 31.3098 29.2071 32.4757 27.4874C32.5431 27.4902 32.6566 27.5132 32.8182 27.5945C33.1505 27.7616 33.7265 28.1372 34.4548 28.6136C35.4166 29.2422 36.6942 30.0766 38.2025 30.9416C37.5175 34.2369 35.6031 37.5702 28.2905 36.4717Z" fill="black"></path>
</svg>