<svg xmlns="http://www.w3.org/2000/svg" viewBox="0 0 24 24" width="24" height="24" preserveAspectRatio="xMidYMid meet" focusable="false" style="width: 100%; height: 100%; transform: translate3d(0px, 0px, 0px);"><defs><clipPath id="animationMask_ZYy7Oc1gWi"><rect width="24" height="24" x="0" y="0"></rect></clipPath></defs><g clip-path="url(#animationMask_ZYy7Oc1gWi)"><g transform="matrix(1,0,0,1,2.75,-0.24899959564208984)" opacity="1" style="display: block;"><g opacity="1" transform="matrix(1,0,0,1,9.25,12.24899959564209)"><path fill="rgb(0,0,0)" fill-opacity="1" d=" M9,-2.999000072479248 C9,-7.96999979019165 4.9710001945495605,-11.99899959564209 0,-11.99899959564209 C-4.9710001945495605,-11.99899959564209 -9,-7.96999979019165 -9,-2.999000072479248 C-9,2.005000114440918 -5,8 0,11.99899959564209 C5,8 9,1.972000002861023 9,-2.999000072479248z M0,10.704000473022461 C-4.734000205993652,6.688000202178955 -8,1.2380000352859497 -8,-2.999000072479248 C-8,-7.418000221252441 -4.418000221252441,-10.99899959564209 0,-10.99899959564209 C4.418000221252441,-10.99899959564209 8,-7.418000221252441 8,-2.999000072479248 C8,1.218000054359436 4.7210001945495605,6.696000099182129 0,10.704000473022461z"></path></g><g opacity="1" transform="matrix(1,0,0,1,9.25,9.25)"><path fill="rgb(0,0,0)" fill-opacity="1" d=" M0,-4 C-2.2090001106262207,-4 -4,-2.2090001106262207 -4,0 C-4,2.2090001106262207 -2.2090001106262207,4 0,4 C2.2090001106262207,4 4,2.2090001106262207 4,0 C4,-2.2090001106262207 2.2090001106262207,-4 0,-4z M0,3 C-1.656999945640564,3 -3,1.656999945640564 -3,0 C-3,-1.656999945640564 -1.656999945640564,-3 0,-3 C1.656999945640564,-3 3,-1.656999945640564 3,0 C3,1.656999945640564 1.656999945640564,3 0,3z"></path></g></g><g style="display: none;" transform="matrix(1,0,0,1,2.75,-0.25)" opacity="1"><g opacity="1" transform="matrix(1,0,0,1,8.946999549865723,12.569000244140625)"><path fill="rgb(129,215,208)" fill-opacity="1" d=" M-4.370999813079834,-10.370832443237305 C-4.370999813079834,-10.370832443237305 4.52400016784668,-10.506999969482422 4.52400016784668,-10.506999969482422 C7.218999862670898,-7.977375507354736 8.293000221252441,-5.733870029449463 7.745999813079834,-3.7784836292266846 C7.198999881744385,-1.8231950998306274 4.062160491943359,0.4350929856300354 0.4300350248813629,0.7356486320495605 C-3.401125431060791,0.27130287885665894 -7.135000228881836,-2.435293436050415 -7.714000225067139,-4.218749523162842 C-8.293000221252441,-6.001205921173096 -7.178999900817871,-8.051899909973145 -4.370999813079834,-10.370832443237305z"></path></g><g opacity="1" transform="matrix(1,0,0,1,9.25,9.25)"><path fill="rgb(255,255,255)" fill-opacity="1" d=" M0,-7.454550266265869 C1.656999945640564,-7.454550266265869 3,-6.1115498542785645 3,-4.454550266265869 C3,-2.7975499629974365 1.656999945640564,-1.45455002784729 0,-1.45455002784729 C-1.656999945640564,-1.45455002784729 -3,-2.7975499629974365 -3,-4.454550266265869 C-3,-6.1115498542785645 -1.656999945640564,-7.454550266265869 0,-7.454550266265869z"></path></g><g opacity="1" transform="matrix(1,0,0,1,9.25,12.25)"><path fill="rgb(0,0,0)" fill-opacity="1" d=" M0,2.1336781978607178 C-4.436190128326416,1.5040067434310913 -9,-1.7080271244049072 -9,-5.385044097900391 C-9,-9.038082122802734 -4.9710001945495605,-11.99899959564209 0,-11.99899959564209 C4.9710001945495605,-11.99899959564209 9,-9.038082122802734 9,-5.385044097900391 C9,-1.7320061922073364 4.323428153991699,1.5833911895751953 0,2.1336781978607178z M7,-5.153205394744873 C7,-7.82934045791626 3.865999937057495,-9.99899959564209 0,-9.99899959564209 C-3.865999937057495,-9.99899959564209 -7,-7.82934045791626 -7,-5.153205394744873 C-7,-2.583258867263794 -3.904567003250122,-0.5965953469276428 0,-0.15303584933280945 C3.9034900665283203,-0.5962036848068237 7,-2.5969440937042236 7,-5.153205394744873z M0,-3.453550100326538 C-2.2090001106262207,-3.453550100326538 -4,-5.2445502281188965 -4,-7.453549861907959 C-4,-9.66254997253418 -2.2090001106262207,-11.453550338745117 0,-11.453550338745117 C2.2090001106262207,-11.453550338745117 4,-9.66254997253418 4,-7.453549861907959 C4,-5.2445502281188965 2.2090001106262207,-3.453550100326538 0,-3.453550100326538z M0,-6.411575794219971 C1.1039999723434448,-6.411575794219971 2,-7.3075761795043945 2,-8.411576271057129 C2,-9.515576362609863 1.1039999723434448,-10.411576271057129 0,-10.411576271057129 C-1.1039999723434448,-10.411576271057129 -2,-9.515576362609863 -2,-8.411576271057129 C-2,-7.3075761795043945 -1.1039999723434448,-6.411575794219971 0,-6.411575794219971z"></path></g></g></g></svg>