<svg xmlns="http://www.w3.org/2000/svg" viewBox="0 0 24 24" width="24" height="24" preserveAspectRatio="xMidYMid meet" focusable="false" style="width: 100%; height: 100%; transform: translate3d(0px, 0px, 0px);"><defs><clipPath id="animationMask_OGC9T9x0UM"><rect width="24" height="24" x="0" y="0"></rect></clipPath></defs><g clip-path="url(#animationMask_OGC9T9x0UM)"><g transform="matrix(1,0,0,1,0,0)" opacity="1" style="display: block;"><g opacity="1" transform="matrix(1,0,0,1,12,12)"><path fill="rgb(0,0,0)" fill-opacity="1" d=" M-11.5,11 C-11.5,11 -11.5,10.85200023651123 -11.5,10.85200023651123 C-11.5,10.85200023651123 -9.288000106811523,7.5 -9.288000106811523,7.5 C-9.288000106811523,7.5 9.263999938964844,7.5 9.263999938964844,7.5 C9.263999938964844,7.5 11.496000289916992,10.850000381469727 11.496000289916992,10.850000381469727 C11.496000289916992,10.850000381469727 11.496000289916992,11 11.496000289916992,11 C11.496000289916992,11 12,11 12,11 C12,11 12,12 12,12 C12,12 -12,12 -12,12 C-12,12 -12,11 -12,11 C-12,11 -11.5,11 -11.5,11z M-10.399999618530273,11 C-10.399999618530273,11 10.394000053405762,11 10.394000053405762,11 C10.394000053405762,11 8.72700023651123,8.5 8.72700023651123,8.5 C8.72700023651123,8.5 -8.75,8.5 -8.75,8.5 C-8.75,8.5 -10.399999618530273,11 -10.399999618530273,11z"></path></g></g><g transform="matrix(1,0,0,1,0,0)" opacity="1" style="display: block;"><g opacity="1" transform="matrix(1,0,0,1,12,12)"><path fill="rgb(0,0,0)" fill-opacity="1" d=" M10,3 C10,3 10,5 10,5 C10,5 -10,5 -10,5 C-10,5 -10,3 -10,3 C-10,-2.3550000190734863 -5.790999889373779,-6.7270002365112305 -0.5,-6.98799991607666 C-0.5,-6.98799991607666 0.5,-6.98799991607666 0.5,-6.98799991607666 C5.790999889373779,-6.7270002365112305 10,-2.3550000190734863 10,3z M9,3 C9,-1.9709999561309814 4.9710001945495605,-6 0,-6 C-4.9710001945495605,-6 -9,-1.9709999561309814 -9,3 C-9,3 -9,4 -9,4 C-9,4 9,4 9,4 C9,4 9,3 9,3z"></path></g></g><g transform="matrix(1,0,0,1,0,0)" opacity="1" style="display: block;"><g opacity="1" transform="matrix(1,0,0,1,12,12)"><path fill="rgb(0,0,0)" fill-opacity="1" d=" M-0.5,-6.98799991607666 C-0.5,-6.98799991607666 -0.5,-11 -0.5,-11 C-0.5,-11 -4,-11 -4,-11 C-4,-11 -4,-12 -4,-12 C-4,-12 4,-12 4,-12 C4,-12 4,-11 4,-11 C4,-11 0.5,-11 0.5,-11 C0.5,-11 0.5,-6.98799991607666 0.5,-6.98799991607666 C0.5,-6.98799991607666 -0.5,-6.98799991607666 -0.5,-6.98799991607666z"></path></g></g></g></svg>