<svg xmlns="http://www.w3.org/2000/svg" viewBox="0 0 24 24" width="24" height="24" preserveAspectRatio="xMidYMid meet" focusable="false" style="width: 100%; height: 100%; transform: translate3d(0px, 0px, 0px);"><defs><clipPath id="animationMask_Y9ggECDyf6"><rect width="24" height="24" x="0" y="0"></rect></clipPath><mask id="ly_3W7lN6tWSK" mask-type="alpha"><g transform="matrix(1,0,0,1,0,0)" opacity="1" style="display: block;"><g opacity="1" transform="matrix(1,0,0,1,9.319999694824219,9.256999969482422)"><path fill="rgb(0,0,0)" fill-opacity="1" d=" M-0.31200000643730164,-8.006999969482422 C-4.561999797821045,-8.006999969482422 -8.006999969482422,-4.561999797821045 -8.006999969482422,-0.31200000643730164 C-8.006999969482422,3.937999963760376 -4.561999797821045,7.381999969482422 -0.31200000643730164,7.381999969482422 C3.937999963760376,7.381999969482422 7.381999969482422,3.937999963760376 7.381999969482422,-0.31200000643730164 C7.381999969482422,-4.561999797821045 3.937999963760376,-8.006999969482422 -0.31200000643730164,-8.006999969482422z"></path></g></g></mask><mask id="ly_8jvfXzkktf" mask-type="alpha"><g transform="matrix(1,0,0,1,0,0)" opacity="1" style="display: block;"><g opacity="1" transform="matrix(1,0,0,1,9.319999694824219,9.256999969482422)"><path fill="rgb(0,0,0)" fill-opacity="1" d=" M-0.31200000643730164,-8.006999969482422 C-4.561999797821045,-8.006999969482422 -8.006999969482422,-4.561999797821045 -8.006999969482422,-0.31200000643730164 C-8.006999969482422,3.937999963760376 -4.561999797821045,7.381999969482422 -0.31200000643730164,7.381999969482422 C3.937999963760376,7.381999969482422 7.381999969482422,3.937999963760376 7.381999969482422,-0.31200000643730164 C7.381999969482422,-4.561999797821045 3.937999963760376,-8.006999969482422 -0.31200000643730164,-8.006999969482422z"></path></g></g></mask><mask id="ly_6nGrxZfUIH" mask-type="alpha"><g transform="matrix(1,0,0,1,0,0)" opacity="1" style="display: block;"><g opacity="1" transform="matrix(1,0,0,1,11.852999687194824,12)"><path fill="rgb(129,216,208)" fill-opacity="1" d=" M4.046000003814697,2.7780001163482666 C4.046000003814697,2.7780001163482666 2.5999999046325684,4.159999847412109 2.5999999046325684,4.159999847412109 C1.0870000123977661,5.314000129699707 -0.8040000200271606,6 -2.8540000915527344,6 C-7.824999809265137,6 -11.854000091552734,1.9709999561309814 -11.854000091552734,-3 C-11.854000091552734,-7.9710001945495605 -7.824999809265137,-12 -2.8540000915527344,-12 C2.117000102996826,-12 6.145999908447266,-7.9710001945495605 6.145999908447266,-3 C6.145999908447266,-0.800000011920929 5.35699987411499,1.215000033378601 4.046000003814697,2.7780001163482666z"></path></g></g></mask></defs><g clip-path="url(#animationMask_Y9ggECDyf6)"><g mask="url(#ly_3W7lN6tWSK)" style="display: block;"><g transform="matrix(0.6156615018844604,0.7880107760429382,-0.7880107760429382,0.6156615018844604,27.129045486450195,-9.677360534667969)" opacity="1"><g opacity="1" transform="matrix(1,0,0,1,12.102999687194824,12.104000091552734)"><path fill="rgb(0,0,0)" fill-opacity="1" d=" M-2.8540000915527344,5.145999908447266 C1.5640000104904175,5.145999908447266 5.145999908447266,1.5640000104904175 5.145999908447266,-2.8540000915527344 C5.145999908447266,-7.271999835968018 1.5640000104904175,-10.854000091552734 -2.8540000915527344,-10.854000091552734 C-7.271999835968018,-10.854000091552734 -10.854000091552734,-7.271999835968018 -10.854000091552734,-2.8540000915527344 C-10.854000091552734,1.5640000104904175 -7.271999835968018,5.145999908447266 -2.8540000915527344,5.145999908447266z M3.8550000190734863,3.1480000019073486 C3.8550000190734863,3.1480000019073486 11.854000091552734,11.145999908447266 11.854000091552734,11.145999908447266 C11.854000091552734,11.145999908447266 11.145999908447266,11.854000091552734 11.145999908447266,11.854000091552734 C11.145999908447266,11.854000091552734 3.1480000019073486,3.8550000190734863 3.1480000019073486,3.8550000190734863 C1.5549999475479126,5.28000020980835 -0.5490000247955322,6.145999908447266 -2.8540000915527344,6.145999908447266 C-7.824999809265137,6.145999908447266 -11.854000091552734,2.117000102996826 -11.854000091552734,-2.8540000915527344 C-11.854000091552734,-7.824999809265137 -7.824999809265137,-11.854000091552734 -2.8540000915527344,-11.854000091552734 C2.117000102996826,-11.854000091552734 6.145999908447266,-7.824999809265137 6.145999908447266,-2.8540000915527344 C6.145999908447266,-0.5490000247955322 5.28000020980835,1.5549999475479126 3.8550000190734863,3.1480000019073486z"></path></g></g></g><g mask="url(#ly_8jvfXzkktf)" style="display: block;"><g transform="matrix(0.6156615018844604,0.7880107760429382,-0.7880107760429382,0.6156615018844604,26.673362731933594,-8.938497543334961)" opacity="1"><g opacity="1" transform="matrix(1,0,0,1,11.852999687194824,12)"><path fill="rgb(0,0,0)" fill-opacity="1" d=" M4.046000003814697,2.7780001163482666 C4.046000003814697,2.7780001163482666 11.854000091552734,10.586000442504883 11.854000091552734,10.586000442504883 C11.854000091552734,10.586000442504883 10.439000129699707,12 10.439000129699707,12 C10.439000129699707,12 2.5999999046325684,4.159999847412109 2.5999999046325684,4.159999847412109 C1.0870000123977661,5.314000129699707 -0.8040000200271606,6 -2.8540000915527344,6 C-7.824999809265137,6 -11.854000091552734,1.9709999561309814 -11.854000091552734,-3 C-11.854000091552734,-7.9710001945495605 -7.824999809265137,-12 -2.8540000915527344,-12 C2.117000102996826,-12 6.145999908447266,-7.9710001945495605 6.145999908447266,-3 C6.145999908447266,-0.800000011920929 5.35699987411499,1.215000033378601 4.046000003814697,2.7780001163482666z M-2.8540000915527344,4 C1.0119999647140503,4 4.145999908447266,0.8659999966621399 4.145999908447266,-3 C4.145999908447266,-6.866000175476074 1.0119999647140503,-10 -2.8540000915527344,-10 C-6.71999979019165,-10 -9.854000091552734,-6.866000175476074 -9.854000091552734,-3 C-9.854000091552734,0.8659999966621399 -6.71999979019165,4 -2.8540000915527344,4z"></path></g></g></g><g mask="url(#ly_6nGrxZfUIH)" style="display: block;"><g transform="matrix(0.6156615018844604,0.7880107760429382,-0.7880107760429382,0.6156615018844604,26.673362731933594,-8.938497543334961)" opacity="1"><g opacity="1" transform="matrix(1,0,0,1,11.852999687194824,12)"><path fill="rgb(129,216,208)" fill-opacity="1" d=" M4.046000003814697,2.7780001163482666 C4.046000003814697,2.7780001163482666 11.854000091552734,10.586000442504883 11.854000091552734,10.586000442504883 C11.854000091552734,10.586000442504883 10.439000129699707,12 10.439000129699707,12 C10.439000129699707,12 2.5999999046325684,4.159999847412109 2.5999999046325684,4.159999847412109 C1.0870000123977661,5.314000129699707 -0.8040000200271606,6 -2.8540000915527344,6 C-7.824999809265137,6 -11.854000091552734,1.9709999561309814 -11.854000091552734,-3 C-11.854000091552734,-7.9710001945495605 -7.824999809265137,-12 -2.8540000915527344,-12 C2.117000102996826,-12 6.145999908447266,-7.9710001945495605 6.145999908447266,-3 C6.145999908447266,-0.800000011920929 5.35699987411499,1.215000033378601 4.046000003814697,2.7780001163482666z"></path></g></g></g><g transform="matrix(1,0,0,1,-0.25,-0.25)" opacity="1" style="display: block;"><g opacity="1" transform="matrix(1,0,0,1,12.102999687194824,12.104000091552734)"><path fill="rgb(0,0,0)" fill-opacity="1" d=" M-2.8540000915527344,5.145999908447266 C1.5640000104904175,5.145999908447266 5.145999908447266,1.5640000104904175 5.145999908447266,-2.8540000915527344 C5.145999908447266,-7.271999835968018 1.5640000104904175,-10.854000091552734 -2.8540000915527344,-10.854000091552734 C-7.271999835968018,-10.854000091552734 -10.854000091552734,-7.271999835968018 -10.854000091552734,-2.8540000915527344 C-10.854000091552734,1.5640000104904175 -7.271999835968018,5.145999908447266 -2.8540000915527344,5.145999908447266z M3.8550000190734863,3.1480000019073486 C3.8550000190734863,3.1480000019073486 11.854000091552734,11.145999908447266 11.854000091552734,11.145999908447266 C11.854000091552734,11.145999908447266 11.145999908447266,11.854000091552734 11.145999908447266,11.854000091552734 C11.145999908447266,11.854000091552734 3.1480000019073486,3.8550000190734863 3.1480000019073486,3.8550000190734863 C1.5549999475479126,5.28000020980835 -0.5490000247955322,6.145999908447266 -2.8540000915527344,6.145999908447266 C-7.824999809265137,6.145999908447266 -11.854000091552734,2.117000102996826 -11.854000091552734,-2.8540000915527344 C-11.854000091552734,-7.824999809265137 -7.824999809265137,-11.854000091552734 -2.8540000915527344,-11.854000091552734 C2.117000102996826,-11.854000091552734 6.145999908447266,-7.824999809265137 6.145999908447266,-2.8540000915527344 C6.145999908447266,-0.5490000247955322 5.28000020980835,1.5549999475479126 3.8550000190734863,3.1480000019073486z"></path></g></g><g style="display: none;" transform="matrix(1,0,0,1,0,0)" opacity="1"><g opacity="1" transform="matrix(1,0,0,1,11.852999687194824,12)"><path fill="rgb(0,0,0)" fill-opacity="1" d=" M4.046000003814697,2.7780001163482666 C4.046000003814697,2.7780001163482666 11.854000091552734,10.586000442504883 11.854000091552734,10.586000442504883 C11.854000091552734,10.586000442504883 10.439000129699707,12 10.439000129699707,12 C10.439000129699707,12 2.5999999046325684,4.159999847412109 2.5999999046325684,4.159999847412109 C1.0870000123977661,5.314000129699707 -0.8040000200271606,6 -2.8540000915527344,6 C-7.824999809265137,6 -11.854000091552734,1.9709999561309814 -11.854000091552734,-3 C-11.854000091552734,-7.9710001945495605 -7.824999809265137,-12 -2.8540000915527344,-12 C2.117000102996826,-12 6.145999908447266,-7.9710001945495605 6.145999908447266,-3 C6.145999908447266,-0.800000011920929 5.35699987411499,1.215000033378601 4.046000003814697,2.7780001163482666z M-2.8540000915527344,4 C1.0119999647140503,4 4.145999908447266,0.8659999966621399 4.145999908447266,-3 C4.145999908447266,-6.866000175476074 1.0119999647140503,-10 -2.8540000915527344,-10 C-6.71999979019165,-10 -9.854000091552734,-6.866000175476074 -9.854000091552734,-3 C-9.854000091552734,0.8659999966621399 -6.71999979019165,4 -2.8540000915527344,4z"></path></g></g></g></svg>