<svg xmlns="http://www.w3.org/2000/svg" viewBox="0 0 24 24" width="24" height="24" preserveAspectRatio="xMidYMid slice" focusable="false" style="width: 100%; height: 100%; transform: translate3d(0px, 0px, 0px);"><defs><clipPath id="animationMask_Fn3pfBD5xD"><rect width="24" height="24" x="0" y="0"></rect></clipPath></defs><g clip-path="url(#animationMask_Fn3pfBD5xD)"><g transform="matrix(1,0,0,1,1.75,-0.25)" opacity="1" style="display: block;"><g opacity="1" transform="matrix(1,0,0,1,10.25,12.25)"><path fill="rgb(0,0,0)" fill-opacity="1" d=" M-9.112116813659668,12 C-9.112116813659668,12 -10.125166893005371,12 -10.125166893005371,12 C-10.125166893005371,6.513814926147461 -5.590106964111328,2.064882278442383 0.004597378429025412,2.064882278442383 C5.598227500915527,2.064882278442383 10.13436222076416,6.513814926147461 10.13436222076416,12 C10.13436222076416,12 9.12138557434082,12 9.12138557434082,12 C9.12138557434082,7.061255931854248 5.040109157562256,3.0584311485290527 0.004597378429025412,3.0584311485290527 C-5.030914306640625,3.0584311485290527 -9.112116813659668,7.061255931854248 -9.112116813659668,12z M0,-0.5272856950759888 C2.76200008392334,-0.5272856950759888 5,-2.710301399230957 5,-5.40219259262085 C5,-8.094083786010742 2.76200008392334,-10.27702522277832 0,-10.27702522277832 C-2.760999917984009,-10.27702522277832 -5,-8.094083786010742 -5,-5.40219259262085 C-5,-2.710301399230957 -2.760999917984009,-0.5272856950759888 0,-0.5272856950759888z M0,0.5005210638046265 C-3.312999963760376,0.5005210638046265 -6,-2.1418399810791016 -6,-5.399819850921631 C-6,-8.65779972076416 -3.312999963760376,-11.30016040802002 0,-11.30016040802002 C3.312999963760376,-11.30016040802002 6,-8.65779972076416 6,-5.399819850921631 C6,-2.1418399810791016 3.312999963760376,0.5005210638046265 0,0.5005210638046265z"></path></g></g><g style="display: none;" transform="matrix(1,0,0,1,1.75,-0.25)" opacity="1"><g opacity="1" transform="matrix(1,0,0,1,10.25,19.75)"><path fill="rgb(129,215,208)" fill-opacity="1" d=" M9,4.5 C9,-0.47099998593330383 4.9710001945495605,-4.5 0,-4.5 C-4.9710001945495605,-4.5 -9,-0.47099998593330383 -9,4.5"></path></g><g opacity="1" transform="matrix(1,0,0,1,10.25,6.25)"><path fill="rgb(129,215,208)" fill-opacity="1" d=" M0,-5 C2.76200008392334,-5 5,-2.760999917984009 5,0 C5,2.760999917984009 2.76200008392334,5 0,5 C-2.760999917984009,5 -5,2.760999917984009 -5,0 C-5,-2.760999917984009 -2.760999917984009,-5 0,-5z"></path></g><g opacity="1" transform="matrix(1,0,0,1,10.25,12.25)"><path fill="rgb(0,0,0)" fill-opacity="1" d=" M0,0 C-3.312999963760376,0 -6,-2.687000036239624 -6,-6 C-6,-9.312999725341797 -3.312999963760376,-12 0,-12 C3.312999963760376,-12 6,-9.312999725341797 6,-6 C6,-2.687000036239624 3.312999963760376,0 0,0z M0,-2 C2.2090001106262207,-2 4,-3.7909998893737793 4,-6 C4,-8.208999633789062 2.2090001106262207,-10 0,-10 C-2.2090001106262207,-10 -4,-8.208999633789062 -4,-6 C-4,-3.7909998893737793 -2.2090001106262207,-2 0,-2z M-8,12 C-8,12 -10,12 -10,12 C-10,6.478000164031982 -5.5229997634887695,2 0,2 C5.521999835968018,2 10,6.478000164031982 10,12 C10,12 8,12 8,12 C8,7.581999778747559 4.418000221252441,4 0,4 C-4.418000221252441,4 -8,7.581999778747559 -8,12z"></path></g></g></g></svg>